<svg width="24" height="22" viewBox="0 0 24 22"  xmlns="http://www.w3.org/2000/svg">
<g id="Group 10">
<path id="Vector" fill-rule="evenodd" clip-rule="evenodd" d="M24 22H0V3H4V0H8V3H16V0H20V3H24V22ZM23 7H1V21H23V7ZM6.499 15.794L7.531 15.666C7.732 16.596 8.224 17.204 9.175 17.204C10.132 17.204 10.906 16.518 10.906 15.57C10.906 14.581 10.057 13.781 8.533 14.155L8.648 13.312C9.558 13.402 10.528 12.964 10.528 12.014C10.528 11.34 10 10.79 9.152 10.79C8.361 10.79 7.788 11.249 7.634 12.2L6.602 12.029C6.86 10.71 7.829 10 9.129 10C10.54 10 11.588 10.893 11.588 12.035C11.588 12.681 11.225 13.28 10.43 13.621C11.423 13.834 12 14.535 12 15.549C12 17.009 10.706 18 9.169 18C7.638 18 6.632 17.055 6.499 15.794ZM16 18H14.969V11.735C14.45 12.196 13.615 12.682 13 12.894V11.965C14.316 11.389 15.036 10.563 15.336 10H16V18ZM23 4H1V6H23V4ZM7 1H5V3H7V1ZM19 1H17V3H19V1Z" fill=""/>
<rect id="Rectangle 26" x="1" y="7" width="22" height="14" fill="#F9F9F9"/>
</g>
</svg>
