<svg width="26" height="20" viewBox="0 0 26 20" fill="none" xmlns="http://www.w3.org/2000/svg">
<path id="Vector" fill-rule="evenodd" clip-rule="evenodd" d="M23 1C23.53 1 24.039 1.211 24.414 1.586C24.789 1.961 25 2.47 25 3V17C25 17.53 24.789 18.039 24.414 18.414C24.039 18.789 23.53 19 23 19H3C2.47 19 1.961 18.789 1.586 18.414C1.211 18.039 1 17.53 1 17V3C1 2.47 1.211 1.961 1.586 1.586C1.961 1.211 2.47 1 3 1H23ZM24 9H2V17C2 17.552 2.448 18 3 18H23C23.552 18 24 17.552 24 17V9ZM9 14V15H4V14H9ZM22 12V13H19V12H22ZM12 12V13H4V12H12ZM2 6V8H24V6H2ZM24 5V3C24 2.448 23.552 2 23 2H3C2.448 2 2 2.448 2 3V5H24Z" fill="black" stroke="black" stroke-width="0.5"/>
</svg>
