<svg width="20" height="18" viewBox="0 0 20 18" fill="none" xmlns="http://www.w3.org/2000/svg">
<path id="Vector" d="M16.8911 16.5H3.10915L1.58915 6.999H18.4121L16.8911 16.5ZM2.58515 3.994H17.4531L17.2261 5.5H2.81115L2.58515 3.994ZM3.57815 1.5H16.4601L16.3301 2.483H3.70715L3.57815 1.5ZM19.9991 6.498C19.9991 5.94 19.5431 5.5 18.9981 5.5H18.7451C19.0541 3.436 19.0341 3.589 19.0341 3.491C19.0341 2.911 18.5651 2.483 18.0341 2.483H17.8451C18.0381 1.022 18.0321 1.084 18.0321 1.001C18.0321 0.33 17.4571 0 17.0311 0H3.00715C2.47115 0 2.00615 0.433 2.00615 1C2.00615 1.083 1.99815 1.013 2.19415 2.483H2.00415C1.48015 2.483 1.00315 2.905 1.00315 3.49C1.00315 3.591 0.987147 3.463 1.29315 5.5H1.00215C0.433147 5.5 0.00114728 5.964 0.00114728 6.499C0.00114728 6.617 -0.103853 5.917 1.69515 17.158C1.77215 17.644 2.19115 18 2.68315 18H17.3181C17.8101 18 18.2291 17.644 18.3061 17.158C20.1071 5.908 19.9991 6.618 19.9991 6.498Z" fill="black"/>
</svg>
