<svg width="28" height="29" viewBox="0 0 28 29" fill="none" xmlns="http://www.w3.org/2000/svg">
<path id="Vector" d="M14.0007 0C21.7264 0 28 6.49762 28 14.4993C28 22.5024 21.7264 29 14.0007 29C6.27357 29 0 22.5024 0 14.4993C0 6.49762 6.27357 0 14.0007 0ZM6.93033 15.0635L12.3231 20.0382C12.5219 20.2239 12.7726 20.3138 13.0219 20.3138C13.3047 20.3138 13.589 20.1963 13.7948 19.9628L22.1311 10.5224C22.3146 10.315 22.4056 10.0539 22.4056 9.7943C22.4056 9.19965 21.9421 8.71088 21.3581 8.71088C21.0725 8.71088 20.791 8.82981 20.5823 9.06332L12.9462 17.7104L8.32788 13.4492C8.12623 13.265 7.87837 13.1736 7.62911 13.1736C7.04796 13.1736 6.58165 13.6595 6.58165 14.2556C6.58165 14.5529 6.69927 14.8488 6.93033 15.0635Z" fill="#137AC5"/>
</svg>
