<svg width="26" height="22" viewBox="0 0 26 22" fill="none" xmlns="http://www.w3.org/2000/svg">
<path id="Vector" fill-rule="evenodd" clip-rule="evenodd" d="M22 6H24.81V21H3.81V16H1V1H22V6ZM23.81 7H4.81V20H23.81V7ZM14.31 8C17.346 8 19.81 10.464 19.81 13.5C19.81 16.536 17.346 19 14.31 19C11.274 19 8.81 16.536 8.81 13.5C8.81 10.464 11.274 8 14.31 8ZM14.31 9C16.794 9 18.81 11.016 18.81 13.5C18.81 15.984 16.794 18 14.31 18C11.826 18 9.81 15.984 9.81 13.5C9.81 11.016 11.826 9 14.31 9ZM14.81 17H13.81V16.196C13.043 16.036 12.332 15.507 12.332 14.492H13.354C13.354 15.083 13.68 15.378 14.332 15.378C15.149 15.378 15.659 14.463 14.165 13.939C13.397 13.669 12.485 13.263 12.485 12.246C12.485 11.45 13.058 10.949 13.81 10.798V10H14.81V10.806C15.514 10.967 16.123 11.479 16.123 12.404H15.105C15.105 11.616 14.378 11.628 14.29 11.628C13.74 11.628 13.503 11.919 13.503 12.25C13.503 12.497 13.637 12.747 14.46 13.018C15.516 13.362 16.123 13.863 16.123 14.764C16.123 15.415 15.747 16.052 14.81 16.212V17ZM21 6V2H2V15H3.81V6H21Z" fill="black" stroke="black" stroke-width="0.5"/>
</svg>
