<svg width="20" height="20" viewBox="0 0 20 20" fill="none" xmlns="http://www.w3.org/2000/svg">
<g id="iconmonstr-crosshair-3 1" clip-path="url(#clip0_3_2)">
<path id="Vector" d="M10 0C4.4775 0 0 4.4775 0 10C0 15.5225 4.4775 20 10 20C15.5225 20 20 15.5225 20 10C20 4.4775 15.5225 0 10 0ZM18.2908 9.16667H16.6083C16.2325 6.1525 13.8475 3.7675 10.8333 3.39083V1.70917C14.7642 2.10083 17.8992 5.23583 18.2908 9.16667ZM14.925 10.8333C14.5717 12.9225 12.9225 14.5717 10.8333 14.925V12.5H9.16667V14.925C7.0775 14.5717 5.42833 12.9225 5.075 10.8333H7.5V9.16667H5.075C5.42833 7.0775 7.0775 5.42833 9.16667 5.075V7.5H10.8333V5.075C12.9225 5.4275 14.5717 7.07667 14.925 9.16667H12.5V10.8333H14.925ZM9.16667 1.70917V3.39167C6.1525 3.7675 3.7675 6.1525 3.39083 9.16667H1.70917C2.10083 5.23583 5.23583 2.10083 9.16667 1.70917ZM1.70917 10.8333H3.39167C3.76833 13.8475 6.1525 16.2325 9.1675 16.6092V18.2917C5.23583 17.8992 2.10083 14.7642 1.70917 10.8333ZM10.8333 18.2908V16.6083C13.8475 16.2317 16.2325 13.8475 16.6092 10.8325H18.2917C17.8992 14.7642 14.7642 17.8992 10.8333 18.2908Z" fill="black"/>
</g>
<defs>
<clipPath id="clip0_3_2">
<rect width="20" height="20" fill="white"/>
</clipPath>
</defs>
</svg>
