<svg width="24" height="20" viewBox="0 0 24 20" fill="none" xmlns="http://www.w3.org/2000/svg">
<path id="Vector" d="M6 10C6 12.206 7.794 14 10 14C11.761 14 13.242 12.849 13.775 11.266L15.999 9.975L16 10C16 13.314 13.314 16 10 16C6.686 16 4 13.314 4 10C4 6.686 6.686 4 10 4C11.084 4 12.098 4.292 12.975 4.794L10.765 6.077C10.517 6.029 10.262 6 10 6C7.794 6 6 7.794 6 10ZM10 8C8.895 8 8 8.896 8 10C8 11.104 8.895 12 10 12C11.105 12 12 11.104 12 10L11.998 9.985L15.358 8.035C16.334 7.47 18.062 7.699 19.069 8.194L24 5.331L20.842 3.762L21.011 0.13L16.066 3C15.996 4.121 15.332 5.736 14.361 6.301L10.978 8.265C10.688 8.102 10.357 8 10 8ZM17.995 9.911L18 10C18 14.411 14.411 18 10 18C5.589 18 2 14.411 2 10C2 5.589 5.589 2 10 2C11.475 2 12.853 2.408 14.041 3.107C14.375 2.521 14.469 1.563 14.187 0.927C12.912 0.338 11.497 0 10 0C4.477 0 0 4.477 0 10C0 15.523 4.477 20 10 20C15.233 20 19.521 15.979 19.957 10.858C19.656 10.375 18.891 9.797 17.995 9.911Z" fill="black"/>
</svg>
