<svg width="22" height="24" viewBox="0 0 22 24" fill="none" xmlns="http://www.w3.org/2000/svg">
<path id="Vector" fill-rule="evenodd" clip-rule="evenodd" d="M0 20V17.054C1.993 16.398 2.575 14.896 3.668 10.977C4.565 7.759 5.559 4.193 8.541 2.954C8.514 2.807 8.5 2.655 8.5 2.5C8.5 1.12 9.62 0 11 0C12.38 0 13.5 1.12 13.5 2.5C13.5 2.656 13.486 2.809 13.458 2.958C16.445 4.202 17.442 7.771 18.342 10.991C19.445 14.941 20.039 16.414 22 17.053V20H15C15 22.208 13.208 24 11 24C8.792 24 7 22.208 7 20H0ZM14 20H8C8 21.656 9.344 23 11 23C12.656 23 14 21.656 14 20ZM1 19H21V17.759C18.938 16.841 18.18 14.126 17.379 11.261C16.313 7.447 15.212 3.503 11 3.5C6.79 3.5 5.692 7.437 4.631 11.245C3.831 14.117 3.072 16.838 1 17.759V19ZM12.492 2.655L12.5 2.5C12.5 1.672 11.828 1 11 1C10.172 1 9.5 1.672 9.5 2.5L9.508 2.652C9.963 2.553 10.457 2.5 10.995 2.5C11.537 2.5 12.034 2.554 12.492 2.655Z" fill="black"/>
</svg>
