<svg width="20" height="16" viewBox="0 0 20 16" fill="none" xmlns="http://www.w3.org/2000/svg">
<path id="Vector" d="M11 14.5911C11 14.0604 10.664 13.6297 10.25 13.6297H0.75C0.336 13.6297 0 14.0604 0 14.5911C0 15.1218 0.336 15.5525 0.75 15.5525H10.25C10.664 15.5525 11 15.1218 11 14.5911ZM20 8.18179C20 7.6511 19.664 7.22039 19.25 7.22039H0.75C0.336 7.22039 0 7.6511 0 8.18179C0 8.71248 0.336 9.14318 0.75 9.14318H19.25C19.664 9.14318 20 8.71248 20 8.18179ZM16 1.77249C16 1.2418 15.664 0.811096 15.25 0.811096H0.75C0.336 0.811096 0 1.2418 0 1.77249C0 2.30318 0.336 2.73388 0.75 2.73388H15.25C15.664 2.73388 16 2.30318 16 1.77249Z" fill="black"/>
</svg>
