<svg width="29" height="29" viewBox="0 0 29 29" fill="none" xmlns="http://www.w3.org/2000/svg">
<g id="iconmonstr-coin-1" clip-path="url(#clip0_50_89)">
<path id="Vector" d="M14.5 0C6.49238 0 0 6.49238 0 14.5C0 22.5076 6.49238 29 14.5 29C22.5076 29 29 22.5076 29 14.5C29 6.49238 22.5076 0 14.5 0ZM15.7083 20.4776V21.75H14.5V20.5441C13.2494 20.5223 11.9552 20.2239 10.875 19.6656L11.4248 17.6791C12.58 18.1274 14.1182 18.6035 15.3217 18.3316C16.71 18.0175 16.994 16.5892 15.4594 15.9017C14.3345 15.3772 10.8943 14.929 10.8943 11.983C10.8943 10.3361 12.1498 8.86192 14.5 8.53929V7.25H15.7083V8.48008C16.5832 8.50304 17.5643 8.65529 18.6591 8.98758L18.2217 10.9777C17.2937 10.6515 16.2678 10.3554 15.2697 10.4158C13.4705 10.521 13.3122 12.0785 14.5677 12.731C16.6363 13.7037 19.3333 14.4251 19.3333 17.017C19.3358 19.0929 17.7105 20.1973 15.7083 20.4776Z" fill="#00C950"/>
</g>
<defs>
<clipPath id="clip0_50_89">
<rect width="29" height="29" fill="white"/>
</clipPath>
</defs>
</svg>
