<svg width="26" height="26" viewBox="0 0 26 26" fill="" xmlns="http://www.w3.org/2000/svg">
<path id="Vector" fill-rule="evenodd" clip-rule="evenodd" d="M5.94 20.407C2.974 18.55 1 15.254 1 11.5C1 5.705 5.705 1 11.5 1C15.105 1 18.289 2.821 20.18 5.593C23.146 7.45 25.12 10.746 25.12 14.5C25.12 20.295 20.415 25 14.62 25C11.021 25 7.842 23.185 5.95 20.421L5.94 20.407ZM14.62 5C19.863 5 24.12 9.257 24.12 14.5C24.12 19.743 19.863 24 14.62 24C9.377 24 5.12 19.743 5.12 14.5C5.12 9.257 9.377 5 14.62 5ZM15.12 20H14.099V19.129C11.756 18.827 11.5 16.95 11.5 16.385H12.591C12.616 16.79 12.748 18.159 14.773 18.159C15.372 18.159 15.861 18.018 16.226 17.74C16.587 17.464 16.762 17.128 16.762 16.711C16.762 15.918 16.249 15.344 14.692 14.993C12.324 14.457 11.769 13.595 11.769 12.46C11.769 10.951 12.992 10.244 14.099 10.054V9H15.12V10.015C17.611 10.21 17.815 12.23 17.815 12.786H16.717C16.717 11.625 15.799 11.02 14.721 11.02C13.644 11.02 12.867 11.552 12.867 12.428C12.867 13.209 13.306 13.593 14.861 13.982C16.74 14.455 17.86 15.083 17.86 16.663C17.86 18.407 16.351 19.056 15.12 19.156V20ZM17.97 4.547C16.274 2.967 13.999 2 11.5 2C6.257 2 2 6.257 2 11.5C2 14.133 3.073 16.517 4.806 18.239L4.802 18.229C4.362 17.07 4.12 15.813 4.12 14.5C4.12 8.705 8.825 4 14.62 4C15.791 4 16.918 4.192 17.97 4.547Z" fill="" stroke=""/>
</svg>
